<?xml version="1.0" encoding="UTF-8" standalone="no"?>
<svg
   xmlns:dc="http://purl.org/dc/elements/1.1/"
   xmlns:cc="http://creativecommons.org/ns#"
   xmlns:rdf="http://www.w3.org/1999/02/22-rdf-syntax-ns#"
   xmlns:svg="http://www.w3.org/2000/svg"
   xmlns="http://www.w3.org/2000/svg"
   xmlns:sodipodi="http://sodipodi.sourceforge.net/DTD/sodipodi-0.dtd"
   xmlns:inkscape="http://www.inkscape.org/namespaces/inkscape"
   version="1.1"
   id="svg2"
   viewBox="0 0 887.15626 354.33593"
   height="100.00147mm"
   width="250.37521mm"
   inkscape:version="0.91 r13725"
   sodipodi:docname="Simple Side.svg">
  <sodipodi:namedview
     pagecolor="#ffffff"
     bordercolor="#666666"
     borderopacity="1"
     objecttolerance="10"
     gridtolerance="10"
     guidetolerance="10"
     inkscape:pageopacity="0"
     inkscape:pageshadow="2"
     inkscape:window-width="1920"
     inkscape:window-height="1027"
     id="namedview7"
     showgrid="false"
     inkscape:document-units="mm"
     inkscape:zoom="1.0623708"
     inkscape:cx="401.40671"
     inkscape:cy="289.21803"
     inkscape:window-x="-8"
     inkscape:window-y="-8"
     inkscape:window-maximized="1"
     inkscape:current-layer="svg2"
     fit-margin-top="0"
     fit-margin-left="0"
     fit-margin-right="0"
     fit-margin-bottom="0"
     showguides="true"
     inkscape:guide-bbox="true" />
  <defs
     id="defs4" />
  <metadata
     id="metadata7">
    <rdf:RDF>
      <cc:Work
         rdf:about="">
        <dc:format>image/svg+xml</dc:format>
        <dc:type
           rdf:resource="http://purl.org/dc/dcmitype/StillImage" />
        <dc:title />
      </cc:Work>
    </rdf:RDF>
  </metadata>
  <path
     style="color:#000000;font-style:normal;font-variant:normal;font-weight:normal;font-stretch:normal;font-size:medium;line-height:normal;font-family:sans-serif;text-indent:0;text-align:start;text-decoration:none;text-decoration-line:none;text-decoration-style:solid;text-decoration-color:#000000;letter-spacing:normal;word-spacing:normal;text-transform:none;direction:ltr;block-progression:tb;writing-mode:lr-tb;baseline-shift:baseline;text-anchor:start;white-space:normal;clip-rule:nonzero;display:inline;overflow:visible;visibility:visible;opacity:1;isolation:auto;mix-blend-mode:normal;color-interpolation:sRGB;color-interpolation-filters:linearRGB;solid-color:#000000;solid-opacity:1;fill:#800000;fill-opacity:1;fill-rule:nonzero;stroke:none;stroke-width:17.71653557;stroke-linecap:butt;stroke-linejoin:bevel;stroke-miterlimit:4;stroke-dasharray:none;stroke-dashoffset:0;stroke-opacity:1;color-rendering:auto;image-rendering:auto;shape-rendering:auto;text-rendering:auto;enable-background:accumulate"
     d="M 678.14648 102.28711 L 660.4082 107 L 731.32227 229.82617 L 792.89844 336.48047 L 812.59961 335.16797 L 746.66602 220.9668 L 678.14648 102.28711 z M 652.49609 109.10352 L 628.32812 115.52539 L 567.45312 220.9668 L 499.83398 338.08594 L 520.18555 338.27344 L 582.79688 229.82617 L 652.49609 109.10352 z M 393.99805 177.79102 L 376.25977 182.50391 L 403.58203 229.82617 L 465.90625 337.77344 L 486.47461 337.96289 L 418.92578 220.9668 L 393.99805 177.79102 z M 265.36523 211.96875 L 241.19922 218.39062 L 239.71289 220.9668 L 173.82617 335.08594 L 194.17578 335.27344 L 255.05664 229.82617 L 265.36523 211.96875 z M 109.84961 253.29297 L 92.111328 258.00586 L 136.41406 334.74219 L 156.98242 334.93164 L 109.84961 253.29297 z M 855.64453 289.4668 L 829.92578 334.01172 L 851.20508 332.59375 L 861.79102 314.25586 L 855.64453 289.4668 z "
     id="use4176" />
  <path
     style="fill:#1a1a1a;stroke:none;stroke-width:35.43307114;stroke-linejoin:bevel;stroke-miterlimit:4;stroke-dasharray:none"
     d="M 831.68359 0 L 797.45703 9.1699219 L 806.62891 43.396484 L 43.396484 247.9043 L 34.224609 213.67773 L 0 222.84961 L 19.199219 291.06836 L 9.0214844 332.0332 L 26.132812 354.33594 L 408.14453 354.33594 L 408.14453 340.16211 L 479.01172 340.16211 L 479.01172 354.33594 L 870.04297 354.33594 L 887.15625 332.0332 L 818.77148 76.824219 L 850.02539 68.451172 L 831.68359 0 z M 784.54688 85.994141 L 846.95312 318.90234 L 49.222656 318.90234 L 59.580078 280.25 L 784.54688 85.994141 z "
     id="rect4133" />
  <path
     style="fill:#008080;stroke:none;stroke-width:17.71653557;stroke-linecap:butt;stroke-linejoin:bevel;stroke-miterlimit:4;stroke-dasharray:none;stroke-opacity:1"
     d="M 16.001953 -164.47656 L 16.001953 -129.04297 L 795.5293 -129.04297 L 795.5293 -164.47656 L 781.35547 -164.47656 L 781.35547 -143.2168 L 767.18359 -143.2168 L 767.18359 -164.47656 L 44.347656 -164.47656 L 44.347656 -143.2168 L 30.175781 -143.2168 L 30.175781 -164.47656 L 16.001953 -164.47656 z "
     id="rect4225" />
  <rect
     y="-130.5905"
     x="-131.72687"
     height="21.259842"
     width="14.173228"
     id="rect4232"
     style="fill:#0000ff;stroke:none;stroke-width:17.71653557;stroke-linecap:butt;stroke-linejoin:bevel;stroke-miterlimit:4;stroke-dasharray:none;stroke-opacity:1" />
  <rect
     y="-62.709805"
     x="-134.03853"
     height="14.173228"
     width="70.866142"
     id="rect4237"
     style="fill:#008080;stroke:none;stroke-width:17.71653557;stroke-linecap:butt;stroke-linejoin:bevel;stroke-miterlimit:4;stroke-dasharray:none;stroke-opacity:1" />
</svg>
