<?xml version="1.0" encoding="UTF-8" standalone="no"?>
<svg
   xmlns:dc="http://purl.org/dc/elements/1.1/"
   xmlns:cc="http://creativecommons.org/ns#"
   xmlns:rdf="http://www.w3.org/1999/02/22-rdf-syntax-ns#"
   xmlns:svg="http://www.w3.org/2000/svg"
   xmlns="http://www.w3.org/2000/svg"
   xmlns:sodipodi="http://sodipodi.sourceforge.net/DTD/sodipodi-0.dtd"
   xmlns:inkscape="http://www.inkscape.org/namespaces/inkscape"
   version="1.1"
   id="svg2"
   viewBox="0 0 887.15626 354.33593"
   height="100.00147mm"
   width="250.37521mm"
   inkscape:version="0.91 r13725"
   sodipodi:docname="Simple Side2.svg">
  <sodipodi:namedview
     pagecolor="#ffffff"
     bordercolor="#666666"
     borderopacity="1"
     objecttolerance="10"
     gridtolerance="10"
     guidetolerance="10"
     inkscape:pageopacity="0"
     inkscape:pageshadow="2"
     inkscape:window-width="1920"
     inkscape:window-height="1027"
     id="namedview7"
     showgrid="false"
     inkscape:document-units="mm"
     inkscape:zoom="1.0623708"
     inkscape:cx="389.64057"
     inkscape:cy="251.56639"
     inkscape:window-x="-8"
     inkscape:window-y="-8"
     inkscape:window-maximized="1"
     inkscape:current-layer="svg2"
     fit-margin-top="0"
     fit-margin-left="0"
     fit-margin-right="0"
     fit-margin-bottom="0"
     showguides="true"
     inkscape:guide-bbox="true" />
  <defs
     id="defs4" />
  <metadata
     id="metadata7">
    <rdf:RDF>
      <cc:Work
         rdf:about="">
        <dc:format>image/svg+xml</dc:format>
        <dc:type
           rdf:resource="http://purl.org/dc/dcmitype/StillImage" />
        <dc:title></dc:title>
      </cc:Work>
    </rdf:RDF>
  </metadata>
  <path
     style="color:#000000;font-style:normal;font-variant:normal;font-weight:normal;font-stretch:normal;font-size:medium;line-height:normal;font-family:sans-serif;text-indent:0;text-align:start;text-decoration:none;text-decoration-line:none;text-decoration-style:solid;text-decoration-color:#000000;letter-spacing:normal;word-spacing:normal;text-transform:none;direction:ltr;block-progression:tb;writing-mode:lr-tb;baseline-shift:baseline;text-anchor:start;white-space:normal;clip-rule:nonzero;display:inline;overflow:visible;visibility:visible;opacity:1;isolation:auto;mix-blend-mode:normal;color-interpolation:sRGB;color-interpolation-filters:linearRGB;solid-color:#000000;solid-opacity:1;fill:#1a1a1a;fill-opacity:1;fill-rule:nonzero;stroke:none;stroke-width:17.71653557;stroke-linecap:butt;stroke-linejoin:bevel;stroke-miterlimit:4;stroke-dasharray:none;stroke-dashoffset:0;stroke-opacity:1;color-rendering:auto;image-rendering:auto;shape-rendering:auto;text-rendering:auto;enable-background:accumulate"
     d="M 831.68359 0 L 797.45703 9.1699219 L 806.62891 43.396484 L 43.396484 247.9043 L 34.224609 213.67773 L 0 222.84961 L 19.199219 291.06836 L 9.0214844 332.0332 L 26.132812 354.33594 L 408.14453 354.33594 L 408.14453 340.16211 L 479.01172 340.16211 L 479.01172 354.33594 L 870.04297 354.33594 L 887.15625 332.0332 L 818.77148 76.824219 L 850.02539 68.451172 L 831.68359 0 z M 784.54688 85.994141 L 844.32031 309.07812 L 838.65039 318.90234 L 803.20898 318.90234 L 746.66602 220.9668 L 684.25586 112.86719 L 784.54688 85.994141 z M 666.53711 117.61523 L 731.32227 229.82617 L 782.75 318.90234 L 531.36914 318.90234 L 582.79688 229.82617 L 644.11328 123.62305 L 666.53711 117.61523 z M 619.9082 130.10938 L 567.45312 220.9668 L 510.91016 318.90234 L 475.4707 318.90234 L 418.92578 220.9668 L 400.42383 188.91992 L 619.9082 130.10938 z M 382.70508 193.66797 L 403.58203 229.82617 L 455.01172 318.90234 L 203.62695 318.90234 L 255.05664 229.82617 L 256.39062 227.51367 L 382.70508 193.66797 z M 232.18945 234 L 183.16992 318.90234 L 147.72852 318.90234 L 116.59375 264.97266 L 232.18945 234 z M 98.875 269.7207 L 127.26953 318.90234 L 49.222656 318.90234 L 59.580078 280.25 L 98.875 269.7207 z "
     id="use4176" />
</svg>
